<?xml version="1.0" standalone="no"?>
<!DOCTYPE svg PUBLIC "-//W3C//DTD SVG 20010904//EN"
 "http://www.w3.org/TR/2001/REC-SVG-20010904/DTD/svg10.dtd">
<svg version="1.0" xmlns="http://www.w3.org/2000/svg"
 width="500.000000pt" height="500.000000pt" viewBox="0 0 500.000000 500.000000"
 preserveAspectRatio="xMidYMid meet">

<g transform="translate(0.000000,500.000000) scale(0.100000,-0.100000)"
fill="#000000" stroke="none">
<path d="M1350 2900 c-39 -39 -14 -110 40 -110 29 0 70 38 70 65 0 7 -9 24
-21 39 -25 31 -61 34 -89 6z"/>
<path d="M3381 2893 c-15 -13 -25 -38 -33 -83 -8 -49 -17 -70 -37 -88 -52 -45
-61 -56 -61 -74 0 -10 10 -26 21 -36 47 -38 49 -43 49 -113 0 -39 5 -90 11
-113 29 -115 159 -186 262 -142 69 29 91 92 46 129 -19 15 -33 18 -74 12 -69
-8 -82 4 -93 90 -5 39 -8 73 -6 77 2 3 32 7 66 7 67 0 92 15 103 62 9 38 -28
78 -80 85 -85 11 -85 11 -85 52 -1 63 -17 125 -36 139 -23 17 -28 16 -53 -4z"/>
<path d="M1587 2762 l-27 -28 0 -230 c0 -211 2 -232 20 -262 59 -96 180 -41
180 81 0 61 35 185 59 210 17 17 21 17 56 3 55 -23 112 -21 125 5 27 49 -28
135 -105 165 -44 16 -117 16 -172 -1 -18 -6 -23 -2 -29 19 -6 27 -47 66 -68
66 -7 0 -24 -13 -39 -28z"/>
<path d="M2865 2771 c-100 -25 -164 -121 -181 -271 -15 -138 66 -246 203 -272
48 -9 72 -9 104 1 79 24 116 93 67 125 -13 8 -54 20 -93 27 -38 6 -77 15 -85
19 -17 10 -7 12 100 31 82 13 142 48 164 93 19 40 19 49 6 97 -26 95 -181 176
-285 150z m139 -152 c15 -12 24 -25 19 -29 -4 -5 -43 -11 -85 -15 -86 -8 -96
-1 -56 42 28 30 85 31 122 2z"/>
<path d="M2474 2742 c-37 -6 -55 -37 -83 -149 -39 -154 -82 -226 -114 -194
-16 16 -37 123 -37 193 0 79 -11 114 -39 123 -37 11 -59 -12 -82 -86 -44 -145
-8 -327 75 -378 35 -22 104 -29 146 -16 14 4 44 21 68 36 l44 29 28 -30 c33
-35 62 -38 90 -10 24 24 25 55 4 152 -8 40 -15 116 -16 168 0 52 -4 107 -10
121 -10 29 -42 47 -74 41z"/>
<path d="M3953 2720 c-104 -47 -196 -183 -197 -289 0 -102 54 -162 154 -169
48 -4 65 0 119 28 l64 32 36 -36 c61 -60 132 -45 146 30 8 39 -51 323 -73 353
-48 65 -166 89 -249 51z m100 -123 c9 -23 -10 -98 -30 -126 -25 -33 -79 -65
-98 -57 -37 14 7 112 74 169 36 30 47 33 54 14z"/>
<path d="M918 2668 c-50 -19 -61 -20 -82 -9 -31 17 -54 9 -60 -21 -3 -13 -15
-70 -27 -128 -30 -145 -40 -536 -14 -576 33 -50 102 -54 133 -6 13 19 18 56
22 144 l5 119 80 2 c92 3 143 25 192 81 43 48 56 96 51 176 -6 86 -43 168 -93
206 -50 38 -127 43 -207 12z m134 -125 c13 -11 18 -30 18 -65 0 -62 -11 -83
-50 -97 -38 -13 -115 -4 -131 16 -23 27 35 118 96 151 28 16 46 15 67 -5z"/>
<path d="M1382 2673 c-17 -14 -26 -44 -41 -138 -35 -211 -36 -246 -11 -278 36
-46 98 -33 120 25 19 50 25 358 8 379 -21 27 -53 32 -76 12z"/>
</g>
</svg>
